<svg xmlns="http://www.w3.org/2000/svg" xmlns:xlink="http://www.w3.org/1999/xlink" width="141.73" height="276.38" viewBox="0 0 141.73 276.38">
  <defs>
    <style>
      .a {
        fill: url(#a);
      }

      .b {
        fill: #98c1d9;
      }

      .c {
        fill: url(#b);
      }

      .d {
        fill: url(#c);
      }

      .e {
        fill: none;
      }

      .f {
        fill: url(#d);
      }
    </style>
    <linearGradient id="a" data-name="Безымянный градиент 6" x1="98.95" y1="199.28" x2="134.28" y2="296.61" gradientTransform="translate(239.06 449.71) rotate(180)" gradientUnits="userSpaceOnUse">
      <stop offset="0" stop-color="#3d5a80"/>
      <stop offset="1" stop-color="#98c1d9"/>
    </linearGradient>
    <linearGradient id="b" data-name="Безымянный градиент 8" x1="100.85" y1="62.23" x2="94.18" y2="-2.43" gradientUnits="userSpaceOnUse">
      <stop offset="0" stop-color="#e0fbfc"/>
      <stop offset="1" stop-color="#98c1d9"/>
    </linearGradient>
    <linearGradient id="c" x1="97.33" y1="192.3" x2="200.84" y2="192.3" gradientTransform="translate(239.06 449.71) rotate(180)" xlink:href="#b"/>
    <linearGradient id="d" x1="122.56" y1="139.03" x2="113.56" y2="82.69" xlink:href="#b"/>
  </defs>
  <title>Ресурс 1</title>
  <g>
    <path class="a" d="M54.14,169.7a87.56,87.56,0,0,1,86.11-87.58,1.47,1.47,0,0,1,1.48,1.47,1.44,1.44,0,0,1-.71,1.24,87.51,87.51,0,0,0-43.09,75.45v.07A87.79,87.79,0,0,0,139.76,235a4.07,4.07,0,0,1,2,3.46h0c-1,0-2,0-3.06,0a140.94,140.94,0,0,1-35.39-5.24c-3.82-1.07-7.58-2.31-11.26-3.69-1.47-.55-2.94-1.12-4.38-1.72l-2.17-.92c-1.44-.63-2.87-1.27-4.28-1.94-.7-.33-1.41-.67-2.11-1-1.39-.69-2.78-1.4-4.15-2.14-2.06-1.1-4.09-2.26-6.09-3.46A87.13,87.13,0,0,1,54.14,169.7Z"/>
    <path class="b" d="M55,157.72a87.56,87.56,0,0,1,85.29-75.6,1.47,1.47,0,0,1,1.48,1.47,1.44,1.44,0,0,1-.71,1.24,87.51,87.51,0,0,0-43.09,75.45v.07A87.79,87.79,0,0,0,139.76,235a4.07,4.07,0,0,1,2,3.46q-2.3-.75-4.59-1.55c-18.19-6.27-36.46-14.46-51.21-26.22C69.94,197.92,58.08,181,55,157.72Z"/>
    <path class="b" d="M103.23,50.3A52.38,52.38,0,0,0,141.73,0a142.17,142.17,0,0,0-24.31,2.08c-2.7,28.69-41.15,54.11-61.61,71.84l-1,.84A141.32,141.32,0,0,1,103.23,50.3Z"/>
    <path class="c" d="M103.23,50.3A52.38,52.38,0,0,0,141.73,0a142.17,142.17,0,0,0-24.31,2.08c-2.7,28.69-41.15,54.11-61.61,71.84l-1,.84A141.32,141.32,0,0,1,103.23,50.3Z"/>
    <path class="d" d="M38.22,238.55a142.24,142.24,0,0,0,103.51-.1A37.89,37.89,0,0,1,90,273.74,142,142,0,0,1,38.22,238.55Z"/>
    <path class="b" d="M0,141.73a142.73,142.73,0,0,1,1.78-22.51,141.25,141.25,0,0,1,47.54-85c.26-.22.52-.45.79-.66A141.11,141.11,0,0,1,97.65,7a139.65,139.65,0,0,1,19.77-4.91c-2.7,28.69-41.15,54.11-61.61,71.84l-1,.84q-3.46,2.7-6.76,5.59c-36.89,32.5-36.8,90.42.14,122.87a142.1,142.1,0,0,0,20.61,15.06c2,1.2,4,2.36,6.09,3.46,1.37.74,2.76,1.45,4.15,2.14.7.35,1.41.69,2.11,1,1.42.67,2.84,1.32,4.28,1.94l2.17.92c1.44.6,2.91,1.17,4.38,1.72,3.68,1.38,7.44,2.62,11.26,3.69a140.94,140.94,0,0,0,35.39,5.24c1,0,2,0,3.06,0-.72.28-1.44.56-2.17.82a142.17,142.17,0,0,1-101.34-.72A141.36,141.36,0,0,1,1.78,164.24h0A142.6,142.6,0,0,1,0,141.73Z"/>
    <path class="e" d="M0,141.73a142.73,142.73,0,0,1,1.78-22.51,141.25,141.25,0,0,1,47.54-85c.26-.22.52-.45.79-.66A141.11,141.11,0,0,1,97.65,7a139.65,139.65,0,0,1,19.77-4.91c-2.7,28.69-41.15,54.11-61.61,71.84l-1,.84q-3.46,2.7-6.76,5.59c-36.89,32.5-36.8,90.42.14,122.87a142.1,142.1,0,0,0,20.61,15.06A87.58,87.58,0,0,1,140.25,82.12a1.47,1.47,0,0,1,1.48,1.47,1.44,1.44,0,0,1-.71,1.24,87.51,87.51,0,0,0-43.09,75.45v.07A87.79,87.79,0,0,0,139.76,235a4.07,4.07,0,0,1,2,3.46h0c-.72.28-1.44.56-2.17.82a142.17,142.17,0,0,1-101.34-.72A141.36,141.36,0,0,1,1.78,164.24h0A142.6,142.6,0,0,1,0,141.73Z"/>
    <path class="f" d="M96,137.07a141.29,141.29,0,0,1,7.76-46.33,87,87,0,0,1,36.46-8.62,1.47,1.47,0,0,1,1.48,1.47,1.44,1.44,0,0,1-.71,1.24,87.51,87.51,0,0,0-43.09,75.45v.07A142.85,142.85,0,0,1,96,137.07Z"/>
  </g>
</svg>
